<svg xmlns="http://www.w3.org/2000/svg" viewBox="0 0 800 500">
  <defs>
    <linearGradient id="b-bg" x1="0%" y1="0%" x2="100%" y2="100%">
      <stop offset="0%" stop-color="#0c1220"/>
      <stop offset="100%" stop-color="#1e2d4a"/>
    </linearGradient>
    <linearGradient id="b-floor" x1="0%" y1="0%" x2="0%" y2="100%">
      <stop offset="0%" stop-color="#1a2238"/>
      <stop offset="100%" stop-color="#0a0e18"/>
    </linearGradient>
    <linearGradient id="b-head" x1="0%" y1="0%" x2="0%" y2="100%">
      <stop offset="0%" stop-color="#d8cfc5"/>
      <stop offset="100%" stop-color="#b0a898"/>
    </linearGradient>
    <linearGradient id="b-duvet" x1="0%" y1="0%" x2="0%" y2="100%">
      <stop offset="0%" stop-color="#e8e2d8"/>
      <stop offset="100%" stop-color="#c8c0b0"/>
    </linearGradient>
    <radialGradient id="b-lamp1" cx="0%" cy="0%" r="80%">
      <stop offset="0%" stop-color="#ffe0a0" stop-opacity="0.22"/>
      <stop offset="100%" stop-color="#ffe0a0" stop-opacity="0"/>
    </radialGradient>
    <radialGradient id="b-lamp2" cx="100%" cy="0%" r="80%">
      <stop offset="0%" stop-color="#ffe0a0" stop-opacity="0.18"/>
      <stop offset="100%" stop-color="#ffe0a0" stop-opacity="0"/>
    </radialGradient>
  </defs>
  <rect width="800" height="500" fill="url(#b-bg)"/>
  <polygon points="0,370 800,330 800,500 0,500" fill="url(#b-floor)"/>
  <line x1="0" y1="180" x2="800" y2="180" stroke="rgba(255,255,255,0.04)" stroke-width="1"/>
  <line x1="0" y1="410" x2="800" y2="382" stroke="rgba(255,255,255,0.04)" stroke-width="1"/>
  <line x1="0" y1="455" x2="800" y2="437" stroke="rgba(255,255,255,0.04)" stroke-width="1"/>
  <line x1="200" y1="500" x2="270" y2="334" stroke="rgba(255,255,255,0.03)" stroke-width="1"/>
  <line x1="500" y1="500" x2="570" y2="332" stroke="rgba(255,255,255,0.03)" stroke-width="1"/>
  <!-- Headboard - tufted -->
  <rect x="140" y="155" width="520" height="175" rx="16" fill="url(#b-head)"/>
  <!-- Tufted button pattern -->
  <circle cx="233" cy="205" r="7" fill="#a09888"/><circle cx="233" cy="255" r="7" fill="#a09888"/><circle cx="233" cy="305" r="7" fill="#a09888"/>
  <circle cx="310" cy="205" r="7" fill="#a09888"/><circle cx="310" cy="255" r="7" fill="#a09888"/><circle cx="310" cy="305" r="7" fill="#a09888"/>
  <circle cx="387" cy="205" r="7" fill="#a09888"/><circle cx="387" cy="255" r="7" fill="#a09888"/><circle cx="387" cy="305" r="7" fill="#a09888"/>
  <circle cx="464" cy="205" r="7" fill="#a09888"/><circle cx="464" cy="255" r="7" fill="#a09888"/><circle cx="464" cy="305" r="7" fill="#a09888"/>
  <circle cx="541" cy="205" r="7" fill="#a09888"/><circle cx="541" cy="255" r="7" fill="#a09888"/><circle cx="541" cy="305" r="7" fill="#a09888"/>
  <!-- Diamond lines for tufting -->
  <line x1="233" y1="205" x2="310" y2="255" stroke="#b8b0a0" stroke-width="1" opacity="0.4"/>
  <line x1="310" y1="205" x2="233" y2="255" stroke="#b8b0a0" stroke-width="1" opacity="0.4"/>
  <line x1="310" y1="205" x2="387" y2="255" stroke="#b8b0a0" stroke-width="1" opacity="0.4"/>
  <line x1="387" y1="205" x2="310" y2="255" stroke="#b8b0a0" stroke-width="1" opacity="0.4"/>
  <line x1="387" y1="205" x2="464" y2="255" stroke="#b8b0a0" stroke-width="1" opacity="0.4"/>
  <line x1="464" y1="205" x2="387" y2="255" stroke="#b8b0a0" stroke-width="1" opacity="0.4"/>
  <line x1="464" y1="205" x2="541" y2="255" stroke="#b8b0a0" stroke-width="1" opacity="0.4"/>
  <line x1="541" y1="205" x2="464" y2="255" stroke="#b8b0a0" stroke-width="1" opacity="0.4"/>
  <line x1="233" y1="255" x2="310" y2="305" stroke="#b8b0a0" stroke-width="1" opacity="0.4"/>
  <line x1="310" y1="255" x2="233" y2="305" stroke="#b8b0a0" stroke-width="1" opacity="0.4"/>
  <line x1="310" y1="255" x2="387" y2="305" stroke="#b8b0a0" stroke-width="1" opacity="0.4"/>
  <line x1="387" y1="255" x2="310" y2="305" stroke="#b8b0a0" stroke-width="1" opacity="0.4"/>
  <line x1="387" y1="255" x2="464" y2="305" stroke="#b8b0a0" stroke-width="1" opacity="0.4"/>
  <line x1="464" y1="255" x2="387" y2="305" stroke="#b8b0a0" stroke-width="1" opacity="0.4"/>
  <line x1="464" y1="255" x2="541" y2="305" stroke="#b8b0a0" stroke-width="1" opacity="0.4"/>
  <line x1="541" y1="255" x2="464" y2="305" stroke="#b8b0a0" stroke-width="1" opacity="0.4"/>
  <!-- Bed frame base -->
  <rect x="120" y="320" width="560" height="80" rx="8" fill="#1e2840"/>
  <!-- Mattress / duvet -->
  <rect x="130" y="315" width="540" height="72" rx="6" fill="url(#b-duvet)"/>
  <!-- Duvet fold -->
  <rect x="130" y="315" width="540" height="22" rx="6" fill="#e0d8cc"/>
  <line x1="130" y1="337" x2="670" y2="337" stroke="rgba(0,0,0,0.08)" stroke-width="1.5"/>
  <!-- Runner/throw -->
  <rect x="130" y="345" width="540" height="28" rx="4" fill="#8090a8" opacity="0.6"/>
  <!-- Pillows -->
  <rect x="160" y="296" width="150" height="55" rx="10" fill="#f0ece4"/>
  <rect x="490" y="296" width="150" height="55" rx="10" fill="#f0ece4"/>
  <rect x="315" y="300" width="170" height="50" rx="10" fill="#e8e2d8" opacity="0.9"/>
  <!-- Pillow seams -->
  <line x1="235" y1="296" x2="235" y2="351" stroke="rgba(0,0,0,0.06)" stroke-width="1"/>
  <line x1="565" y1="296" x2="565" y2="351" stroke="rgba(0,0,0,0.06)" stroke-width="1"/>
  <!-- Legs -->
  <rect x="132" y="393" width="14" height="20" rx="3" fill="#141c2a"/>
  <rect x="654" y="393" width="14" height="20" rx="3" fill="#141c2a"/>
  <!-- Bedside tables -->
  <rect x="30" y="310" width="90" height="90" rx="6" fill="#1a2238"/>
  <rect x="680" y="310" width="90" height="90" rx="6" fill="#1a2238"/>
  <rect x="30" y="310" width="90" height="30" rx="6" fill="#243050"/>
  <rect x="680" y="310" width="90" height="30" rx="6" fill="#243050"/>
  <!-- Lamps on bedside tables -->
  <polygon points="75,268 100,308 50,308" fill="#c8b890"/>
  <rect x="72" y="308" width="6" height="15" fill="#a09070"/>
  <rect x="55" y="323" width="40" height="6" rx="2" fill="#8a7858"/>
  <polygon points="725,268 750,308 700,308" fill="#c8b890"/>
  <rect x="722" y="308" width="6" height="15" fill="#a09070"/>
  <rect x="705" y="323" width="40" height="6" rx="2" fill="#8a7858"/>
  <!-- Lamp glow -->
  <rect width="800" height="500" fill="url(#b-lamp1)" opacity="0.9"/>
  <rect width="800" height="500" fill="url(#b-lamp2)" opacity="0.9"/>
  <!-- Rug -->
  <ellipse cx="400" cy="430" rx="200" ry="28" fill="rgba(100,120,160,0.15)"/>
</svg>
