<svg xmlns="http://www.w3.org/2000/svg" viewBox="0 0 800 500">
  <defs>
    <linearGradient id="s-bg" x1="0%" y1="0%" x2="100%" y2="100%">
      <stop offset="0%" stop-color="#1c1208"/>
      <stop offset="100%" stop-color="#3d2010"/>
    </linearGradient>
    <linearGradient id="s-floor" x1="0%" y1="0%" x2="0%" y2="100%">
      <stop offset="0%" stop-color="#2a1810"/>
      <stop offset="100%" stop-color="#120c06"/>
    </linearGradient>
    <linearGradient id="s-sofa" x1="0%" y1="0%" x2="0%" y2="100%">
      <stop offset="0%" stop-color="#7a5238"/>
      <stop offset="100%" stop-color="#3a2015"/>
    </linearGradient>
    <radialGradient id="s-led" cx="50%" cy="0%" r="70%">
      <stop offset="0%" stop-color="#4488ff" stop-opacity="0.45"/>
      <stop offset="100%" stop-color="#4488ff" stop-opacity="0"/>
    </radialGradient>
    <radialGradient id="s-lamp" cx="50%" cy="0%" r="50%">
      <stop offset="0%" stop-color="#ffe8c0" stop-opacity="0.15"/>
      <stop offset="100%" stop-color="#ffe8c0" stop-opacity="0"/>
    </radialGradient>
  </defs>
  <rect width="800" height="500" fill="url(#s-bg)"/>
  <polygon points="0,360 800,320 800,500 0,500" fill="url(#s-floor)"/>
  <line x1="0" y1="400" x2="800" y2="372" stroke="rgba(255,255,255,0.04)" stroke-width="1"/>
  <line x1="0" y1="450" x2="800" y2="432" stroke="rgba(255,255,255,0.04)" stroke-width="1"/>
  <line x1="180" y1="500" x2="250" y2="325" stroke="rgba(255,255,255,0.03)" stroke-width="1"/>
  <line x1="440" y1="500" x2="510" y2="322" stroke="rgba(255,255,255,0.03)" stroke-width="1"/>
  <line x1="680" y1="500" x2="750" y2="325" stroke="rgba(255,255,255,0.03)" stroke-width="1"/>
  <rect x="310" y="55" width="180" height="130" rx="3" fill="none" stroke="rgba(201,164,123,0.2)" stroke-width="2"/>
  <rect x="320" y="65" width="160" height="110" rx="2" fill="rgba(201,164,123,0.06)"/>
  <line x1="310" y1="120" x2="490" y2="120" stroke="rgba(201,164,123,0.1)" stroke-width="1"/>
  <rect x="75" y="270" width="650" height="115" rx="10" fill="#251508"/>
  <rect x="85" y="200" width="630" height="95" rx="12" fill="url(#s-sofa)"/>
  <rect x="95" y="206" width="195" height="84" rx="10" fill="#8a6040"/>
  <rect x="303" y="206" width="195" height="84" rx="10" fill="#8a6040"/>
  <rect x="511" y="206" width="195" height="84" rx="10" fill="#8a6040"/>
  <line x1="192" y1="206" x2="192" y2="290" stroke="rgba(0,0,0,0.3)" stroke-width="2"/>
  <line x1="400" y1="206" x2="400" y2="290" stroke="rgba(0,0,0,0.3)" stroke-width="2"/>
  <line x1="608" y1="206" x2="608" y2="290" stroke="rgba(0,0,0,0.3)" stroke-width="2"/>
  <rect x="95" y="278" width="190" height="75" rx="8" fill="#7a5238"/>
  <rect x="305" y="278" width="190" height="75" rx="8" fill="#7a5238"/>
  <rect x="515" y="278" width="190" height="75" rx="8" fill="#7a5238"/>
  <rect x="73" y="230" width="58" height="120" rx="10" fill="#1e1008"/>
  <rect x="669" y="230" width="58" height="120" rx="10" fill="#1e1008"/>
  <rect x="95" y="381" width="14" height="18" rx="3" fill="#110a04"/>
  <rect x="691" y="381" width="14" height="18" rx="3" fill="#110a04"/>
  <rect x="252" y="381" width="14" height="18" rx="3" fill="#110a04"/>
  <rect x="534" y="381" width="14" height="18" rx="3" fill="#110a04"/>
  <rect x="85" y="382" width="630" height="3" rx="1.5" fill="#5599ff" opacity="0.85"/>
  <ellipse cx="400" cy="388" rx="315" ry="32" fill="url(#s-led)"/>
  <rect x="112" y="250" width="65" height="65" rx="10" fill="#a07850" transform="rotate(-8 144 282)"/>
  <rect x="624" y="252" width="65" height="65" rx="10" fill="#a07850" transform="rotate(8 656 284)"/>
  <ellipse cx="400" cy="0" rx="250" ry="80" fill="url(#s-lamp)"/>
</svg>
